# xmcd CD Database Entry
#
# Track frame offsets:
# 150
# 27450
# 44683
# 66299
# 89332
# 106752
# 124703
# 148888
# 165629
# 186254
# 214742
# 234545
# 256583
# 276099
#
# Disc length: 4381 seconds
#
# Revision: 1
# Processed by: cddbd v1.5.1PL0 Copyright (c) Steve Scherf et al.
# Submitted via: RSJCDWriter_freedb_lib_OS/2 1.02
#
DISCID=cc111b0e
DTITLE=Mary Chapin Carpenter - Time Sex Love
DYEAR=1996
DGENRE=Country
TTITLE0=Whenever You're Ready
TTITLE1=Simple Life
TTITLE2=Swept Away
TTITLE3=Slave To The Beauty
TTITLE4=Maybe World
TTITLE5=What Was It Like
TTITLE6=King Of Love
TTITLE7=This Is Me Leaving You
TTITLE8=Someone Else's Prayer
TTITLE9=The Dreaming Road
TTITLE10=Alone But Not Lonely
TTITLE11=The Long Way Home
TTITLE12=In The Name Of Love
TTITLE13=Late For Your Life
EXTD=YEAR: 1996 ID3G: 2
EXTT0=
EXTT1=
EXTT2=
EXTT3=
EXTT4=
EXTT5=
EXTT6=
EXTT7=
EXTT8=
EXTT9=
EXTT10=
EXTT11=
EXTT12=
EXTT13=
PLAYORDER=
